<svg xmlns="http://www.w3.org/2000/svg" viewBox="0 0 64 64" role="img" aria-labelledby="greenpathLogoTitle greenpathLogoDesc">
  <title id="greenpathLogoTitle">GreenPath logo</title>
  <desc id="greenpathLogoDesc">A location pin combined with a walking path motif in green tones.</desc>
  <path d="M16 39L32 27L48 39L32 48Z" fill="#83a067" />
  <path d="M16 39L32 27L32 48Z" fill="#728f5a" />
  <path d="M48 39L32 27L32 48Z" fill="#8daa70" />
  <path d="M20 40.2H44" fill="none" stroke="#3f6928" stroke-width="2.2" stroke-linecap="round" />
  <path d="M27 34.4L24.5 52" fill="none" stroke="#3f6928" stroke-width="2.4" stroke-linecap="round" />
  <path d="M37 34.4L39.5 52" fill="none" stroke="#3f6928" stroke-width="2.4" stroke-linecap="round" />
  <path d="M32 5.8C24.6 5.8 18.6 11.8 18.6 19.2C18.6 29.8 32 42.1 32 42.1C32 42.1 45.4 29.8 45.4 19.2C45.4 11.8 39.4 5.8 32 5.8Z" fill="#2f5b23" />
  <path d="M32 10C26.9 10 22.8 14.1 22.8 19.2C22.8 26 32 35.8 32 35.8C32 35.8 41.2 26 41.2 19.2C41.2 14.1 37.1 10 32 10Z" fill="#355f28" />
  <path d="M31.2 13.1C28.3 17.2 27.2 22 27.8 27.1C31.4 23.2 34.7 19.4 37.3 16.2C35.7 14.2 33.7 13.1 31.2 13.1Z" fill="#9fd62a" />
  <path d="M31.6 12.4L29.2 27.2" fill="none" stroke="#7eb726" stroke-width="1.9" stroke-linecap="round" />
</svg>